<svg width="19" height="19" viewBox="0 0 19 19" fill="none" xmlns="http://www.w3.org/2000/svg">
<path fill-rule="evenodd" clip-rule="evenodd" d="M8.3125 2.96887C7.61075 2.96887 6.91587 3.10709 6.26754 3.37563C5.6192 3.64418 5.03011 4.0378 4.5339 4.53401C4.03768 5.03023 3.64407 5.61932 3.37552 6.26765C3.10697 6.91598 2.96875 7.61086 2.96875 8.31262C2.96875 9.01437 3.10697 9.70925 3.37552 10.3576C3.64407 11.0059 4.03768 11.595 4.5339 12.0912C5.03011 12.5874 5.6192 12.981 6.26754 13.2496C6.91587 13.5181 7.61075 13.6564 8.3125 13.6564C9.72975 13.6564 11.089 13.0934 12.0911 12.0912C13.0932 11.0891 13.6562 9.72987 13.6562 8.31262C13.6562 6.89537 13.0932 5.53616 12.0911 4.53401C11.089 3.53187 9.72975 2.96887 8.3125 2.96887ZM1.78125 8.31262C1.78139 7.26373 2.03414 6.23031 2.51812 5.29977C3.00211 4.36922 3.70309 3.56893 4.56177 2.96659C5.42045 2.36424 6.41157 1.97756 7.4513 1.83926C8.49102 1.70095 9.54876 1.81509 10.535 2.17202C11.5213 2.52895 12.4071 3.11816 13.1176 3.88983C13.828 4.66149 14.3421 5.5929 14.6164 6.60528C14.8907 7.61765 14.9172 8.6812 14.6936 9.70597C14.47 10.7307 14.0028 11.6866 13.3317 12.4926L17.0446 16.2055C17.1029 16.2599 17.1497 16.3254 17.1822 16.3983C17.2146 16.4711 17.2321 16.5497 17.2335 16.6295C17.2349 16.7092 17.2202 16.7884 17.1903 16.8623C17.1605 16.9362 17.116 17.0034 17.0597 17.0598C17.0033 17.1162 16.9361 17.1606 16.8622 17.1905C16.7882 17.2203 16.7091 17.235 16.6293 17.2336C16.5496 17.2322 16.471 17.2147 16.3982 17.1823C16.3253 17.1498 16.2598 17.103 16.2054 17.0447L12.4925 13.3318C11.5387 14.1262 10.3783 14.6324 9.14717 14.791C7.91605 14.9497 6.66522 14.7542 5.5412 14.2275C4.41718 13.7008 3.46654 12.8647 2.80063 11.8171C2.13471 10.7696 1.78111 9.55392 1.78125 8.31262Z" fill="#606060"/>
</svg>
