<svg width="35" height="35" viewBox="0 0 35 35" fill="none" xmlns="http://www.w3.org/2000/svg">
<path fill-rule="evenodd" clip-rule="evenodd" d="M16.1554 3.28125C14.8182 3.28125 13.6777 4.24812 13.4575 5.56646L13.1979 7.12979C13.1688 7.30479 13.0302 7.50896 12.7648 7.63729C12.2651 7.87749 11.7844 8.15538 11.3269 8.46854C11.0848 8.63625 10.8398 8.65229 10.6707 8.58958L9.18753 8.0325C8.58121 7.80535 7.91396 7.80072 7.30455 8.01943C6.69514 8.23814 6.18311 8.66601 5.85961 9.22688L4.51503 11.5558C4.19141 12.1164 4.07711 12.7735 4.19247 13.4104C4.30783 14.0473 4.64536 14.6226 5.14503 15.034L6.37003 16.0431C6.50857 16.1569 6.61794 16.3771 6.59461 16.6702C6.55305 17.2231 6.55305 17.7783 6.59461 18.3313C6.61648 18.6229 6.50857 18.8446 6.37148 18.9583L5.14503 19.9675C4.64536 20.3789 4.30783 20.9542 4.19247 21.5911C4.07711 22.228 4.19141 22.8851 4.51503 23.4456L5.85961 25.7746C6.18334 26.3352 6.69547 26.7627 7.30486 26.9812C7.91425 27.1996 8.58138 27.1948 9.18753 26.9675L10.6736 26.4104C10.8413 26.3477 11.0863 26.3652 11.3298 26.53C11.7848 26.8421 12.2646 27.1206 12.7663 27.3612C13.0317 27.4896 13.1702 27.6938 13.1994 27.8717L13.459 29.4335C13.6792 30.7519 14.8196 31.7188 16.1569 31.7188H18.8461C20.1819 31.7188 21.3238 30.7519 21.544 29.4335L21.8036 27.8702C21.8327 27.6952 21.9698 27.491 22.2367 27.3612C22.7384 27.1206 23.2182 26.8421 23.6732 26.53C23.9167 26.3638 24.1617 26.3477 24.3294 26.4104L25.8169 26.9675C26.4228 27.1939 27.0894 27.1981 27.6982 26.9794C28.307 26.7607 28.8185 26.3333 29.1419 25.7731L30.4879 23.4442C30.8116 22.8836 30.9259 22.2265 30.8105 21.5896C30.6951 20.9527 30.3576 20.3774 29.8579 19.966L28.6329 18.9569C28.4944 18.8431 28.385 18.6229 28.4084 18.3298C28.4498 17.7769 28.4498 17.2217 28.4084 16.6688C28.385 16.3771 28.4944 16.1554 28.6315 16.0417L29.8565 15.0325C30.889 14.1838 31.1559 12.7137 30.4879 11.5544L29.1434 9.22542C28.8196 8.66482 28.3075 8.23725 27.6981 8.01881C27.0887 7.80037 26.4216 7.80522 25.8154 8.0325L24.3279 8.58958C24.1617 8.65229 23.9167 8.63479 23.6732 8.46854C23.2161 8.15543 22.7359 7.87755 22.2367 7.63729C21.9698 7.51042 21.8327 7.30625 21.8036 7.12979L21.5425 5.56646C21.4362 4.9278 21.1066 4.34761 20.6126 3.92914C20.1186 3.51067 19.4921 3.28109 18.8446 3.28125H16.1569H16.1554ZM17.5 22.9688C18.9504 22.9688 20.3414 22.3926 21.367 21.367C22.3926 20.3414 22.9688 18.9504 22.9688 17.5C22.9688 16.0496 22.3926 14.6586 21.367 13.633C20.3414 12.6074 18.9504 12.0312 17.5 12.0312C16.0496 12.0312 14.6586 12.6074 13.633 13.633C12.6074 14.6586 12.0313 16.0496 12.0313 17.5C12.0313 18.9504 12.6074 20.3414 13.633 21.367C14.6586 22.3926 16.0496 22.9688 17.5 22.9688Z" fill="#1D1D1D"/>
</svg>
