<svg width="87" height="22" viewBox="0 0 87 22" fill="none" xmlns="http://www.w3.org/2000/svg">
<path d="M1 11L21 11" stroke="#D9D9D9" stroke-linecap="round"/>
<path d="M1 2L21 2" stroke="#D9D9D9" stroke-linecap="round"/>
<path d="M1 7L21 7" stroke="#D9D9D9" stroke-linecap="round"/>
<path d="M1 20L21 20" stroke="#D9D9D9" stroke-linecap="round"/>
<path d="M1 16L21 16" stroke="#D9D9D9" stroke-linecap="round"/>
<path d="M11 1L11 21" stroke="#D9D9D9" stroke-linecap="round"/>
<path d="M20 1L20 21" stroke="#D9D9D9" stroke-linecap="round"/>
<path d="M16 1L16 21" stroke="#D9D9D9" stroke-linecap="round"/>
<path d="M2 1L2 21" stroke="#D9D9D9" stroke-linecap="round"/>
<path d="M6 1L6 21" stroke="#D9D9D9" stroke-linecap="round"/>
<path d="M6 2V20" stroke="#FF0000" stroke-width="2" stroke-linecap="round"/>
<path d="M20 2L6 11.2727L20 20" stroke="#0185FF" stroke-width="2" stroke-linecap="round" stroke-linejoin="round"/>
<path d="M25.6818 16.1932C25.1288 16.1932 24.6288 16.0909 24.1818 15.8864C23.7348 15.678 23.3807 15.3769 23.1193 14.983C22.8617 14.589 22.733 14.1061 22.733 13.5341C22.733 13.0417 22.8277 12.6364 23.017 12.3182C23.2064 12 23.4621 11.7481 23.7841 11.5625C24.1061 11.3769 24.4659 11.2367 24.8636 11.142C25.2614 11.0473 25.6667 10.9754 26.0795 10.9261C26.6023 10.8655 27.0265 10.8163 27.3523 10.7784C27.678 10.7367 27.9148 10.6705 28.0625 10.5795C28.2102 10.4886 28.2841 10.3409 28.2841 10.1364V10.0966C28.2841 9.60038 28.1439 9.21591 27.8636 8.94318C27.5871 8.67045 27.1742 8.53409 26.625 8.53409C26.053 8.53409 25.6023 8.66098 25.2727 8.91477C24.947 9.16477 24.7216 9.44318 24.5966 9.75L23 9.38636C23.1894 8.85606 23.4659 8.42803 23.8295 8.10227C24.197 7.77273 24.6193 7.53409 25.0966 7.38636C25.5739 7.23485 26.0758 7.15909 26.6023 7.15909C26.9508 7.15909 27.3201 7.20076 27.7102 7.28409C28.1042 7.36364 28.4716 7.51136 28.8125 7.72727C29.1572 7.94318 29.4394 8.25189 29.6591 8.65341C29.8788 9.05114 29.9886 9.56818 29.9886 10.2045V16H28.3295V14.8068H28.2614C28.1515 15.0265 27.9867 15.2424 27.767 15.4545C27.5473 15.6667 27.2652 15.8428 26.9205 15.983C26.5758 16.1231 26.1629 16.1932 25.6818 16.1932ZM26.0511 14.8295C26.5208 14.8295 26.9223 14.7367 27.2557 14.5511C27.5928 14.3655 27.8485 14.1231 28.0227 13.8239C28.2008 13.5208 28.2898 13.197 28.2898 12.8523V11.7273C28.2292 11.7879 28.1117 11.8447 27.9375 11.8977C27.767 11.947 27.572 11.9905 27.3523 12.0284C27.1326 12.0625 26.9186 12.0947 26.7102 12.125C26.5019 12.1515 26.3277 12.1742 26.1875 12.1932C25.858 12.2348 25.5568 12.3049 25.2841 12.4034C25.0152 12.5019 24.7992 12.6439 24.6364 12.8295C24.4773 13.0114 24.3977 13.2538 24.3977 13.5568C24.3977 13.9773 24.553 14.2955 24.8636 14.5114C25.1742 14.7235 25.5701 14.8295 26.0511 14.8295ZM32.2514 16V7.27273H33.8821V8.69318H33.9901C34.1719 8.21212 34.4692 7.83712 34.8821 7.56818C35.295 7.29545 35.7893 7.15909 36.3651 7.15909C36.9484 7.15909 37.437 7.29545 37.831 7.56818C38.2287 7.84091 38.5223 8.21591 38.7116 8.69318H38.8026C39.0109 8.22727 39.3423 7.85606 39.7969 7.57955C40.2514 7.29924 40.7931 7.15909 41.4219 7.15909C42.2135 7.15909 42.8594 7.4072 43.3594 7.90341C43.8632 8.39962 44.1151 9.14773 44.1151 10.1477V16H42.4162V10.3068C42.4162 9.71591 42.2552 9.28788 41.9332 9.02273C41.6113 8.75758 41.2268 8.625 40.7798 8.625C40.2268 8.625 39.7969 8.79545 39.4901 9.13636C39.1832 9.47348 39.0298 9.9072 39.0298 10.4375V16H37.3366V10.1989C37.3366 9.72538 37.1889 9.3447 36.8935 9.05682C36.598 8.76894 36.2135 8.625 35.7401 8.625C35.4181 8.625 35.1207 8.71023 34.848 8.88068C34.5791 9.04735 34.3613 9.2803 34.1946 9.57955C34.0317 9.87879 33.9503 10.2254 33.9503 10.6193V16H32.2514ZM46.392 16V7.27273H48.0909V16H46.392ZM47.25 5.92614C46.9545 5.92614 46.7008 5.82765 46.4886 5.63068C46.2803 5.42992 46.1761 5.19129 46.1761 4.91477C46.1761 4.63447 46.2803 4.39583 46.4886 4.19886C46.7008 3.99811 46.9545 3.89773 47.25 3.89773C47.5455 3.89773 47.7973 3.99811 48.0057 4.19886C48.2178 4.39583 48.3239 4.63447 48.3239 4.91477C48.3239 5.19129 48.2178 5.42992 48.0057 5.63068C47.7973 5.82765 47.5455 5.92614 47.25 5.92614ZM50.5128 16V4.36364H54.7741C55.5999 4.36364 56.2836 4.5 56.8253 4.77273C57.367 5.04167 57.7723 5.4072 58.0412 5.86932C58.3101 6.32765 58.4446 6.8447 58.4446 7.42045C58.4446 7.9053 58.3556 8.31439 58.1776 8.64773C57.9995 8.97727 57.7609 9.24242 57.4616 9.44318C57.1662 9.64015 56.8404 9.78409 56.4844 9.875V9.98864C56.8707 10.0076 57.2476 10.1326 57.6151 10.3636C57.9863 10.5909 58.2931 10.9148 58.5355 11.3352C58.7779 11.7557 58.8991 12.267 58.8991 12.8693C58.8991 13.464 58.759 13.9981 58.4787 14.4716C58.2022 14.9413 57.7741 15.3144 57.1946 15.5909C56.6151 15.8636 55.8745 16 54.973 16H50.5128ZM52.2685 14.4943H54.8026C55.6435 14.4943 56.2457 14.3314 56.6094 14.0057C56.973 13.6799 57.1548 13.2727 57.1548 12.7841C57.1548 12.4167 57.062 12.0795 56.8764 11.7727C56.6908 11.4659 56.4257 11.2216 56.081 11.0398C55.7401 10.858 55.3348 10.767 54.8651 10.767H52.2685V14.4943ZM52.2685 9.39773H54.6207C55.0147 9.39773 55.3688 9.32197 55.6832 9.17045C56.0014 9.01894 56.2533 8.80682 56.4389 8.53409C56.6283 8.25758 56.723 7.93182 56.723 7.55682C56.723 7.07576 56.5545 6.67235 56.2173 6.34659C55.8802 6.02083 55.3632 5.85795 54.6662 5.85795H52.2685V9.39773ZM63.3849 16.1932C62.8319 16.1932 62.3319 16.0909 61.8849 15.8864C61.438 15.678 61.0838 15.3769 60.8224 14.983C60.5649 14.589 60.4361 14.1061 60.4361 13.5341C60.4361 13.0417 60.5308 12.6364 60.7202 12.3182C60.9096 12 61.1652 11.7481 61.4872 11.5625C61.8092 11.3769 62.169 11.2367 62.5668 11.142C62.9645 11.0473 63.3698 10.9754 63.7827 10.9261C64.3054 10.8655 64.7296 10.8163 65.0554 10.7784C65.3812 10.7367 65.6179 10.6705 65.7656 10.5795C65.9134 10.4886 65.9872 10.3409 65.9872 10.1364V10.0966C65.9872 9.60038 65.8471 9.21591 65.5668 8.94318C65.2902 8.67045 64.8774 8.53409 64.3281 8.53409C63.7562 8.53409 63.3054 8.66098 62.9759 8.91477C62.6501 9.16477 62.4247 9.44318 62.2997 9.75L60.7031 9.38636C60.8925 8.85606 61.169 8.42803 61.5327 8.10227C61.9001 7.77273 62.3224 7.53409 62.7997 7.38636C63.277 7.23485 63.7789 7.15909 64.3054 7.15909C64.6539 7.15909 65.0232 7.20076 65.4134 7.28409C65.8073 7.36364 66.1747 7.51136 66.5156 7.72727C66.8603 7.94318 67.1425 8.25189 67.3622 8.65341C67.5819 9.05114 67.6918 9.56818 67.6918 10.2045V16H66.0327V14.8068H65.9645C65.8546 15.0265 65.6899 15.2424 65.4702 15.4545C65.2505 15.6667 64.9683 15.8428 64.6236 15.983C64.2789 16.1231 63.866 16.1932 63.3849 16.1932ZM63.7543 14.8295C64.224 14.8295 64.6255 14.7367 64.9588 14.5511C65.2959 14.3655 65.5516 14.1231 65.7259 13.8239C65.9039 13.5208 65.9929 13.197 65.9929 12.8523V11.7273C65.9323 11.7879 65.8149 11.8447 65.6406 11.8977C65.4702 11.947 65.2751 11.9905 65.0554 12.0284C64.8357 12.0625 64.6217 12.0947 64.4134 12.125C64.205 12.1515 64.0308 12.1742 63.8906 12.1932C63.5611 12.2348 63.2599 12.3049 62.9872 12.4034C62.7183 12.5019 62.5024 12.6439 62.3395 12.8295C62.1804 13.0114 62.1009 13.2538 62.1009 13.5568C62.1009 13.9773 62.2562 14.2955 62.5668 14.5114C62.8774 14.7235 63.2732 14.8295 63.7543 14.8295ZM76.4943 9.40341L74.9545 9.67614C74.8902 9.47917 74.7879 9.29167 74.6477 9.11364C74.5114 8.93561 74.3258 8.78977 74.0909 8.67614C73.8561 8.5625 73.5625 8.50568 73.2102 8.50568C72.7292 8.50568 72.3277 8.61364 72.0057 8.82955C71.6837 9.04167 71.5227 9.31629 71.5227 9.65341C71.5227 9.94508 71.6307 10.1799 71.8466 10.358C72.0625 10.536 72.411 10.6818 72.892 10.7955L74.2784 11.1136C75.0814 11.2992 75.6799 11.5852 76.0739 11.9716C76.4678 12.358 76.6648 12.8598 76.6648 13.4773C76.6648 14 76.5133 14.4659 76.2102 14.875C75.911 15.2803 75.4924 15.5985 74.9545 15.8295C74.4205 16.0606 73.8011 16.1761 73.0966 16.1761C72.1193 16.1761 71.322 15.9678 70.7045 15.5511C70.0871 15.1307 69.7083 14.5341 69.5682 13.7614L71.2102 13.5114C71.3125 13.9394 71.5227 14.2633 71.8409 14.483C72.1591 14.6989 72.5739 14.8068 73.0852 14.8068C73.642 14.8068 74.0871 14.6913 74.4205 14.4602C74.7538 14.2254 74.9205 13.9394 74.9205 13.6023C74.9205 13.3295 74.8182 13.1004 74.6136 12.9148C74.4129 12.7292 74.1042 12.589 73.6875 12.4943L72.2102 12.1705C71.3958 11.9848 70.7936 11.6894 70.4034 11.2841C70.017 10.8788 69.8239 10.3655 69.8239 9.74432C69.8239 9.22917 69.9678 8.77841 70.2557 8.39205C70.5436 8.00568 70.9413 7.70455 71.4489 7.48864C71.9564 7.26894 72.5379 7.15909 73.1932 7.15909C74.1364 7.15909 74.8788 7.36364 75.4205 7.77273C75.9621 8.17803 76.3201 8.72159 76.4943 9.40341ZM82.294 16.1761C81.4342 16.1761 80.6937 15.9924 80.0724 15.625C79.455 15.2538 78.9777 14.733 78.6406 14.0625C78.3073 13.3883 78.1406 12.5985 78.1406 11.6932C78.1406 10.7992 78.3073 10.0114 78.6406 9.32955C78.9777 8.64773 79.4474 8.11553 80.0497 7.73295C80.6558 7.35038 81.3641 7.15909 82.1747 7.15909C82.6671 7.15909 83.1444 7.24053 83.6065 7.40341C84.0687 7.56629 84.4834 7.82197 84.8509 8.17045C85.2183 8.51894 85.508 8.97159 85.7202 9.52841C85.9323 10.0814 86.0384 10.7538 86.0384 11.5455V12.1477H79.1009V10.875H84.3736C84.3736 10.428 84.2827 10.0322 84.1009 9.6875C83.919 9.33902 83.6634 9.06439 83.3338 8.86364C83.008 8.66288 82.6255 8.5625 82.1861 8.5625C81.7088 8.5625 81.2921 8.67992 80.9361 8.91477C80.5838 9.14583 80.3111 9.44886 80.1179 9.82386C79.9285 10.1951 79.8338 10.5985 79.8338 11.0341V12.0284C79.8338 12.6117 79.9361 13.108 80.1406 13.517C80.349 13.9261 80.6387 14.2386 81.0099 14.4545C81.3812 14.6667 81.8149 14.7727 82.3111 14.7727C82.633 14.7727 82.9266 14.7273 83.1918 14.6364C83.4569 14.5417 83.6861 14.4015 83.8793 14.2159C84.0724 14.0303 84.2202 13.8011 84.3224 13.5284L85.9304 13.8182C85.8016 14.2917 85.5705 14.7064 85.2372 15.0625C84.9077 15.4148 84.4929 15.6894 83.9929 15.8864C83.4967 16.0795 82.9304 16.1761 82.294 16.1761Z" fill="#1D1D1D"/>
</svg>
