<svg width="89" height="22" viewBox="0 0 89 22" fill="none" xmlns="http://www.w3.org/2000/svg">
<path d="M1 11L21 11" stroke="#D9D9D9" stroke-linecap="round"/>
<path d="M1 2L21 2" stroke="#D9D9D9" stroke-linecap="round"/>
<path d="M1 7L21 7" stroke="#D9D9D9" stroke-linecap="round"/>
<path d="M1 20L21 20" stroke="#D9D9D9" stroke-linecap="round"/>
<path d="M1 16L21 16" stroke="#D9D9D9" stroke-linecap="round"/>
<path d="M11 1L11 21" stroke="#D9D9D9" stroke-linecap="round"/>
<path d="M20 1L20 21" stroke="#D9D9D9" stroke-linecap="round"/>
<path d="M16 1L16 21" stroke="#D9D9D9" stroke-linecap="round"/>
<path d="M2 1L2 21" stroke="#D9D9D9" stroke-linecap="round"/>
<path d="M6 1L6 21" stroke="#D9D9D9" stroke-linecap="round"/>
<path d="M6 2V20" stroke="#FF0000" stroke-width="3" stroke-linecap="round"/>
<path d="M20 2L6 11.2727L20 20" stroke="#0185FF" stroke-width="3" stroke-linecap="round" stroke-linejoin="round"/>
<path d="M25.4545 16.1648C24.8977 16.1648 24.4015 16.0682 23.9659 15.875C23.5303 15.678 23.1856 15.3883 22.9318 15.0057C22.6818 14.6193 22.5568 14.1383 22.5568 13.5625C22.5568 13.0777 22.6458 12.6705 22.8239 12.3409C23.0019 12.0114 23.2443 11.7462 23.5511 11.5455C23.858 11.3447 24.2064 11.1932 24.5966 11.0909C24.9905 10.9886 25.4034 10.9167 25.8352 10.875C26.3428 10.822 26.7519 10.7727 27.0625 10.7273C27.3731 10.678 27.5985 10.6061 27.7386 10.5114C27.8788 10.4167 27.9489 10.2765 27.9489 10.0909V10.0568C27.9489 9.69697 27.8352 9.41856 27.608 9.22159C27.3845 9.02462 27.0663 8.92614 26.6534 8.92614C26.2178 8.92614 25.8712 9.02273 25.6136 9.21591C25.3561 9.4053 25.1856 9.64394 25.1023 9.93182L22.8636 9.75C22.9773 9.2197 23.2008 8.76136 23.5341 8.375C23.8674 7.98485 24.2973 7.68561 24.8239 7.47727C25.3542 7.26515 25.9678 7.15909 26.6648 7.15909C27.1496 7.15909 27.6136 7.21591 28.0568 7.32955C28.5038 7.44318 28.8996 7.61932 29.2443 7.85795C29.5928 8.09659 29.8674 8.40341 30.0682 8.77841C30.2689 9.14962 30.3693 9.5947 30.3693 10.1136V16H28.0739V14.7898H28.0057C27.8655 15.0625 27.678 15.303 27.4432 15.5114C27.2083 15.7159 26.9261 15.8769 26.5966 15.9943C26.267 16.108 25.8864 16.1648 25.4545 16.1648ZM26.1477 14.4943C26.5038 14.4943 26.8182 14.4242 27.0909 14.2841C27.3636 14.1402 27.5777 13.947 27.733 13.7045C27.8883 13.4621 27.9659 13.1875 27.9659 12.8807V11.9545C27.8902 12.0038 27.786 12.0492 27.6534 12.0909C27.5246 12.1288 27.3788 12.1648 27.2159 12.1989C27.053 12.2292 26.8902 12.2576 26.7273 12.2841C26.5644 12.3068 26.4167 12.3277 26.2841 12.3466C26 12.3883 25.7519 12.4545 25.5398 12.5455C25.3277 12.6364 25.1629 12.7595 25.0455 12.9148C24.928 13.0663 24.8693 13.2557 24.8693 13.483C24.8693 13.8125 24.9886 14.0644 25.2273 14.2386C25.4697 14.4091 25.7765 14.4943 26.1477 14.4943ZM32.2472 16V7.27273H34.554V8.8125H34.6562C34.8381 8.30114 35.1411 7.89773 35.5653 7.60227C35.9896 7.30682 36.4972 7.15909 37.0881 7.15909C37.6866 7.15909 38.196 7.30871 38.6165 7.60795C39.0369 7.90341 39.3172 8.30492 39.4574 8.8125H39.5483C39.7263 8.3125 40.0483 7.91288 40.5142 7.61364C40.9839 7.31061 41.5388 7.15909 42.179 7.15909C42.9934 7.15909 43.6544 7.41856 44.1619 7.9375C44.6733 8.45265 44.929 9.18371 44.929 10.1307V16H42.5142V10.608C42.5142 10.1231 42.3854 9.75947 42.1278 9.51705C41.8703 9.27462 41.5483 9.15341 41.1619 9.15341C40.7225 9.15341 40.3797 9.29356 40.1335 9.57386C39.8873 9.85038 39.7642 10.2159 39.7642 10.6705V16H37.4176V10.5568C37.4176 10.1288 37.2945 9.78788 37.0483 9.53409C36.8059 9.2803 36.4858 9.15341 36.0881 9.15341C35.8191 9.15341 35.5767 9.22159 35.3608 9.35795C35.1487 9.49053 34.9801 9.67803 34.8551 9.92045C34.7301 10.1591 34.6676 10.4394 34.6676 10.7614V16H32.2472ZM46.8409 16V7.27273H49.2614V16H46.8409ZM48.0568 6.14773C47.697 6.14773 47.3883 6.02841 47.1307 5.78977C46.8769 5.54735 46.75 5.25758 46.75 4.92045C46.75 4.58712 46.8769 4.30114 47.1307 4.0625C47.3883 3.82008 47.697 3.69886 48.0568 3.69886C48.4167 3.69886 48.7235 3.82008 48.9773 4.0625C49.2348 4.30114 49.3636 4.58712 49.3636 4.92045C49.3636 5.25758 49.2348 5.54735 48.9773 5.78977C48.7235 6.02841 48.4167 6.14773 48.0568 6.14773ZM51.2457 16V4.36364H55.9048C56.7609 4.36364 57.4749 4.49053 58.0469 4.74432C58.6188 4.99811 59.0488 5.35038 59.3366 5.80114C59.6245 6.24811 59.7685 6.76326 59.7685 7.34659C59.7685 7.80114 59.6776 8.20076 59.4957 8.54545C59.3139 8.88636 59.0639 9.16667 58.7457 9.38636C58.4313 9.60227 58.0715 9.75568 57.6662 9.84659V9.96023C58.1094 9.97917 58.5241 10.1042 58.9105 10.3352C59.3007 10.5663 59.617 10.8902 59.8594 11.3068C60.1018 11.7197 60.223 12.2121 60.223 12.7841C60.223 13.4015 60.0696 13.9527 59.7628 14.4375C59.4598 14.9186 59.0109 15.2992 58.4162 15.5795C57.8215 15.8598 57.0885 16 56.2173 16H51.2457ZM53.706 13.9886H55.7116C56.3973 13.9886 56.8973 13.858 57.2116 13.5966C57.526 13.3314 57.6832 12.9792 57.6832 12.5398C57.6832 12.2178 57.6056 11.9337 57.4503 11.6875C57.295 11.4413 57.0734 11.2481 56.7855 11.108C56.5014 10.9678 56.1624 10.8977 55.7685 10.8977H53.706V13.9886ZM53.706 9.23295H55.5298C55.867 9.23295 56.1662 9.17424 56.4276 9.05682C56.6927 8.93561 56.901 8.76515 57.0526 8.54545C57.2079 8.32576 57.2855 8.0625 57.2855 7.75568C57.2855 7.33523 57.1359 6.99621 56.8366 6.73864C56.5412 6.48106 56.1207 6.35227 55.5753 6.35227H53.706V9.23295ZM64.267 16.1648C63.7102 16.1648 63.214 16.0682 62.7784 15.875C62.3428 15.678 61.9981 15.3883 61.7443 15.0057C61.4943 14.6193 61.3693 14.1383 61.3693 13.5625C61.3693 13.0777 61.4583 12.6705 61.6364 12.3409C61.8144 12.0114 62.0568 11.7462 62.3636 11.5455C62.6705 11.3447 63.0189 11.1932 63.4091 11.0909C63.803 10.9886 64.2159 10.9167 64.6477 10.875C65.1553 10.822 65.5644 10.7727 65.875 10.7273C66.1856 10.678 66.411 10.6061 66.5511 10.5114C66.6913 10.4167 66.7614 10.2765 66.7614 10.0909V10.0568C66.7614 9.69697 66.6477 9.41856 66.4205 9.22159C66.197 9.02462 65.8788 8.92614 65.4659 8.92614C65.0303 8.92614 64.6837 9.02273 64.4261 9.21591C64.1686 9.4053 63.9981 9.64394 63.9148 9.93182L61.6761 9.75C61.7898 9.2197 62.0133 8.76136 62.3466 8.375C62.6799 7.98485 63.1098 7.68561 63.6364 7.47727C64.1667 7.26515 64.7803 7.15909 65.4773 7.15909C65.9621 7.15909 66.4261 7.21591 66.8693 7.32955C67.3163 7.44318 67.7121 7.61932 68.0568 7.85795C68.4053 8.09659 68.6799 8.40341 68.8807 8.77841C69.0814 9.14962 69.1818 9.5947 69.1818 10.1136V16H66.8864V14.7898H66.8182C66.678 15.0625 66.4905 15.303 66.2557 15.5114C66.0208 15.7159 65.7386 15.8769 65.4091 15.9943C65.0795 16.108 64.6989 16.1648 64.267 16.1648ZM64.9602 14.4943C65.3163 14.4943 65.6307 14.4242 65.9034 14.2841C66.1761 14.1402 66.3902 13.947 66.5455 13.7045C66.7008 13.4621 66.7784 13.1875 66.7784 12.8807V11.9545C66.7027 12.0038 66.5985 12.0492 66.4659 12.0909C66.3371 12.1288 66.1913 12.1648 66.0284 12.1989C65.8655 12.2292 65.7027 12.2576 65.5398 12.2841C65.3769 12.3068 65.2292 12.3277 65.0966 12.3466C64.8125 12.3883 64.5644 12.4545 64.3523 12.5455C64.1402 12.6364 63.9754 12.7595 63.858 12.9148C63.7405 13.0663 63.6818 13.2557 63.6818 13.483C63.6818 13.8125 63.8011 14.0644 64.0398 14.2386C64.2822 14.4091 64.589 14.4943 64.9602 14.4943ZM78.321 9.76136L76.1051 9.89773C76.0672 9.70833 75.9858 9.53788 75.8608 9.38636C75.7358 9.23106 75.571 9.10795 75.3665 9.01705C75.1657 8.92235 74.9252 8.875 74.6449 8.875C74.2699 8.875 73.9536 8.95455 73.696 9.11364C73.4384 9.26894 73.3097 9.47727 73.3097 9.73864C73.3097 9.94697 73.393 10.1231 73.5597 10.267C73.7263 10.411 74.0123 10.5265 74.4176 10.6136L75.9972 10.9318C76.8456 11.1061 77.4782 11.3864 77.8949 11.7727C78.3116 12.1591 78.5199 12.6667 78.5199 13.2955C78.5199 13.8674 78.3513 14.3693 78.0142 14.8011C77.6809 15.233 77.2225 15.5701 76.6392 15.8125C76.0597 16.0511 75.3911 16.1705 74.6335 16.1705C73.4782 16.1705 72.5578 15.9299 71.8722 15.4489C71.1903 14.964 70.7907 14.3049 70.6733 13.4716L73.054 13.3466C73.1259 13.6989 73.3002 13.9678 73.5767 14.1534C73.8532 14.3352 74.2074 14.4261 74.6392 14.4261C75.0634 14.4261 75.4044 14.3447 75.6619 14.1818C75.9233 14.0152 76.0559 13.8011 76.0597 13.5398C76.0559 13.3201 75.9631 13.1402 75.7812 13C75.5994 12.8561 75.3191 12.7462 74.9403 12.6705L73.429 12.3693C72.5767 12.1989 71.9422 11.9034 71.5256 11.483C71.1127 11.0625 70.9062 10.5265 70.9062 9.875C70.9062 9.31439 71.0578 8.83144 71.3608 8.42614C71.6676 8.02083 72.0975 7.70833 72.6506 7.48864C73.2074 7.26894 73.8589 7.15909 74.6051 7.15909C75.7074 7.15909 76.5748 7.39205 77.2074 7.85795C77.8438 8.32386 78.215 8.95833 78.321 9.76136ZM84.0213 16.1705C83.1236 16.1705 82.3509 15.9886 81.7031 15.625C81.0592 15.2576 80.563 14.7386 80.2145 14.0682C79.866 13.3939 79.6918 12.5966 79.6918 11.6761C79.6918 10.7784 79.866 9.99053 80.2145 9.3125C80.563 8.63447 81.0535 8.10606 81.6861 7.72727C82.3224 7.34848 83.0687 7.15909 83.9247 7.15909C84.5005 7.15909 85.0365 7.25189 85.5327 7.4375C86.0327 7.61932 86.4683 7.89394 86.8395 8.26136C87.2145 8.62879 87.5062 9.09091 87.7145 9.64773C87.9228 10.2008 88.027 10.8485 88.027 11.5909V12.2557H80.6577V10.7557H85.7486C85.7486 10.4072 85.6728 10.0985 85.5213 9.82955C85.3698 9.56061 85.1596 9.35038 84.8906 9.19886C84.6255 9.04356 84.3168 8.96591 83.9645 8.96591C83.5971 8.96591 83.2713 9.05114 82.9872 9.22159C82.7069 9.38826 82.4872 9.61364 82.3281 9.89773C82.169 10.178 82.0876 10.4905 82.0838 10.8352V12.2614C82.0838 12.6932 82.1634 13.0663 82.3224 13.3807C82.4853 13.6951 82.7145 13.9375 83.0099 14.108C83.3054 14.2784 83.6558 14.3636 84.0611 14.3636C84.33 14.3636 84.5762 14.3258 84.7997 14.25C85.0232 14.1742 85.2145 14.0606 85.3736 13.9091C85.5327 13.7576 85.6539 13.572 85.7372 13.3523L87.9759 13.5C87.8622 14.0379 87.6293 14.5076 87.277 14.9091C86.9285 15.3068 86.4777 15.6174 85.9247 15.8409C85.3755 16.0606 84.741 16.1705 84.0213 16.1705Z" fill="#1D1D1D"/>
</svg>
