<svg width="95" height="22" viewBox="0 0 95 22" fill="none" xmlns="http://www.w3.org/2000/svg">
<path d="M1 11L21 11" stroke="#D9D9D9" stroke-linecap="round"/>
<path d="M1 2L21 2" stroke="#D9D9D9" stroke-linecap="round"/>
<path d="M1 6.5L21 6.5" stroke="#D9D9D9" stroke-linecap="round"/>
<path d="M1 20L21 20" stroke="#D9D9D9" stroke-linecap="round"/>
<path d="M1 15.5L21 15.5" stroke="#D9D9D9" stroke-linecap="round"/>
<path d="M11 1L11 21" stroke="#D9D9D9" stroke-linecap="round"/>
<path d="M20 1L20 21" stroke="#D9D9D9" stroke-linecap="round"/>
<path d="M15.5 1L15.5 21" stroke="#D9D9D9" stroke-linecap="round"/>
<path d="M2 1L2 21" stroke="#D9D9D9" stroke-linecap="round"/>
<path d="M6.5 1L6.5 21" stroke="#D9D9D9" stroke-linecap="round"/>
<path d="M7 2V20" stroke="#FF0000" stroke-width="3" stroke-linecap="round"/>
<path d="M21 2L7 11.2727L21 20" stroke="#0185FF" stroke-width="3" stroke-linecap="round" stroke-linejoin="round"/>
<path d="M28.432 17V15.32L28.272 14.952V11.944C28.272 11.4107 28.1067 10.9947 27.776 10.696C27.456 10.3973 26.96 10.248 26.288 10.248C25.8293 10.248 25.376 10.3227 24.928 10.472C24.4907 10.6107 24.1173 10.8027 23.808 11.048L22.912 9.304C23.3813 8.97333 23.9467 8.71733 24.608 8.536C25.2693 8.35467 25.9413 8.264 26.624 8.264C27.936 8.264 28.9547 8.57333 29.68 9.192C30.4053 9.81067 30.768 10.776 30.768 12.088V17H28.432ZM25.808 17.128C25.136 17.128 24.56 17.016 24.08 16.792C23.6 16.5573 23.232 16.2427 22.976 15.848C22.72 15.4533 22.592 15.0107 22.592 14.52C22.592 14.008 22.7147 13.56 22.96 13.176C23.216 12.792 23.616 12.4933 24.16 12.28C24.704 12.056 25.4133 11.944 26.288 11.944H28.576V13.4H26.56C25.9733 13.4 25.568 13.496 25.344 13.688C25.1307 13.88 25.024 14.12 25.024 14.408C25.024 14.728 25.1467 14.984 25.392 15.176C25.648 15.3573 25.9947 15.448 26.432 15.448C26.848 15.448 27.2213 15.352 27.552 15.16C27.8827 14.9573 28.1227 14.664 28.272 14.28L28.656 15.432C28.4747 15.9867 28.144 16.408 27.664 16.696C27.184 16.984 26.5653 17.128 25.808 17.128ZM44.051 8.264C44.7337 8.264 45.3363 8.40267 45.859 8.68C46.3923 8.94667 46.8083 9.36267 47.107 9.928C47.4163 10.4827 47.571 11.1973 47.571 12.072V17H45.075V12.456C45.075 11.7627 44.931 11.2507 44.643 10.92C44.355 10.5893 43.9497 10.424 43.427 10.424C43.0643 10.424 42.739 10.5093 42.451 10.68C42.163 10.84 41.939 11.0853 41.779 11.416C41.619 11.7467 41.539 12.168 41.539 12.68V17H39.043V12.456C39.043 11.7627 38.899 11.2507 38.611 10.92C38.3337 10.5893 37.9337 10.424 37.411 10.424C37.0483 10.424 36.723 10.5093 36.435 10.68C36.147 10.84 35.923 11.0853 35.763 11.416C35.603 11.7467 35.523 12.168 35.523 12.68V17H33.027V8.392H35.411V10.744L34.963 10.056C35.2617 9.46933 35.683 9.02667 36.227 8.728C36.7817 8.41867 37.411 8.264 38.115 8.264C38.9043 8.264 39.5923 8.46667 40.179 8.872C40.7763 9.26667 41.171 9.87467 41.363 10.696L40.483 10.456C40.771 9.784 41.2297 9.25067 41.859 8.856C42.499 8.46133 43.2297 8.264 44.051 8.264ZM49.8083 17V8.392H52.3043V17H49.8083ZM51.0563 7.192C50.5976 7.192 50.2243 7.05867 49.9363 6.792C49.6483 6.52533 49.5043 6.19467 49.5043 5.8C49.5043 5.40533 49.6483 5.07467 49.9363 4.808C50.2243 4.54133 50.5976 4.408 51.0563 4.408C51.5149 4.408 51.8883 4.536 52.1763 4.792C52.4643 5.03733 52.6083 5.35733 52.6083 5.752C52.6083 6.168 52.4643 6.51467 52.1763 6.792C51.8989 7.05867 51.5256 7.192 51.0563 7.192ZM54.7968 17V5.8H60.2688C61.6768 5.8 62.7328 6.06667 63.4368 6.6C64.1514 7.13333 64.5088 7.83733 64.5088 8.712C64.5088 9.29867 64.3648 9.81067 64.0768 10.248C63.7888 10.6747 63.3941 11.0053 62.8928 11.24C62.3914 11.4747 61.8154 11.592 61.1648 11.592L61.4688 10.936C62.1728 10.936 62.7968 11.0533 63.3408 11.288C63.8848 11.512 64.3061 11.848 64.6048 12.296C64.9141 12.744 65.0688 13.2933 65.0688 13.944C65.0688 14.904 64.6901 15.656 63.9328 16.2C63.1754 16.7333 62.0608 17 60.5888 17H54.7968ZM57.3728 15.048H60.3968C61.0688 15.048 61.5754 14.9413 61.9167 14.728C62.2688 14.504 62.4448 14.152 62.4448 13.672C62.4448 13.2027 62.2688 12.856 61.9167 12.632C61.5754 12.3973 61.0688 12.28 60.3968 12.28H57.1808V10.392H59.9488C60.5781 10.392 61.0581 10.2853 61.3888 10.072C61.7301 9.848 61.9008 9.512 61.9008 9.064C61.9008 8.62667 61.7301 8.30133 61.3888 8.088C61.0581 7.864 60.5781 7.752 59.9488 7.752H57.3728V15.048ZM72.1351 17V15.32L71.9751 14.952V11.944C71.9751 11.4107 71.8098 10.9947 71.4791 10.696C71.1591 10.3973 70.6631 10.248 69.9911 10.248C69.5325 10.248 69.0791 10.3227 68.6311 10.472C68.1938 10.6107 67.8205 10.8027 67.5111 11.048L66.6151 9.304C67.0845 8.97333 67.6498 8.71733 68.3111 8.536C68.9725 8.35467 69.6445 8.264 70.3271 8.264C71.6391 8.264 72.6578 8.57333 73.3831 9.192C74.1085 9.81067 74.4711 10.776 74.4711 12.088V17H72.1351ZM69.5111 17.128C68.8391 17.128 68.2631 17.016 67.7831 16.792C67.3031 16.5573 66.9351 16.2427 66.6791 15.848C66.4231 15.4533 66.2951 15.0107 66.2951 14.52C66.2951 14.008 66.4178 13.56 66.6631 13.176C66.9191 12.792 67.3191 12.4933 67.8631 12.28C68.4071 12.056 69.1165 11.944 69.9911 11.944H72.2791V13.4H70.2631C69.6765 13.4 69.2711 13.496 69.0471 13.688C68.8338 13.88 68.7271 14.12 68.7271 14.408C68.7271 14.728 68.8498 14.984 69.0951 15.176C69.3511 15.3573 69.6978 15.448 70.1351 15.448C70.5511 15.448 70.9245 15.352 71.2551 15.16C71.5858 14.9573 71.8258 14.664 71.9751 14.28L72.3591 15.432C72.1778 15.9867 71.8471 16.408 71.3671 16.696C70.8871 16.984 70.2685 17.128 69.5111 17.128ZM79.6261 17.128C78.8901 17.128 78.1808 17.0427 77.4981 16.872C76.8261 16.6907 76.2928 16.4667 75.8981 16.2L76.7301 14.408C77.1248 14.6533 77.5888 14.856 78.1221 15.016C78.6661 15.1653 79.1995 15.24 79.7221 15.24C80.2981 15.24 80.7035 15.1707 80.9381 15.032C81.1835 14.8933 81.3061 14.7013 81.3061 14.456C81.3061 14.2533 81.2101 14.104 81.0181 14.008C80.8368 13.9013 80.5915 13.8213 80.2821 13.768C79.9728 13.7147 79.6315 13.6613 79.2581 13.608C78.8955 13.5547 78.5275 13.4853 78.1541 13.4C77.7808 13.304 77.4395 13.1653 77.1301 12.984C76.8208 12.8027 76.5701 12.5573 76.3781 12.248C76.1968 11.9387 76.1061 11.5387 76.1061 11.048C76.1061 10.504 76.2608 10.024 76.5701 9.608C76.8901 9.192 77.3488 8.86667 77.9461 8.632C78.5435 8.38667 79.2581 8.264 80.0901 8.264C80.6768 8.264 81.2741 8.328 81.8821 8.456C82.4901 8.584 82.9968 8.77067 83.4021 9.016L82.5701 10.792C82.1541 10.5467 81.7328 10.3813 81.3061 10.296C80.8901 10.2 80.4848 10.152 80.0901 10.152C79.5355 10.152 79.1301 10.2267 78.8741 10.376C78.6181 10.5253 78.4901 10.7173 78.4901 10.952C78.4901 11.1653 78.5808 11.3253 78.7621 11.432C78.9541 11.5387 79.2048 11.624 79.5141 11.688C79.8235 11.752 80.1595 11.8107 80.5221 11.864C80.8955 11.9067 81.2688 11.976 81.6421 12.072C82.0155 12.168 82.3515 12.3067 82.6501 12.488C82.9595 12.6587 83.2101 12.8987 83.4021 13.208C83.5941 13.5067 83.6901 13.9013 83.6901 14.392C83.6901 14.9253 83.5301 15.4 83.2101 15.816C82.8901 16.2213 82.4261 16.5413 81.8181 16.776C81.2208 17.0107 80.4901 17.128 79.6261 17.128ZM89.5021 17.128C88.5208 17.128 87.6568 16.936 86.9101 16.552C86.1741 16.168 85.6035 15.6453 85.1981 14.984C84.7928 14.312 84.5901 13.5493 84.5901 12.696C84.5901 11.832 84.7875 11.0693 85.1821 10.408C85.5875 9.736 86.1368 9.21333 86.8301 8.84C87.5235 8.456 88.3075 8.264 89.1821 8.264C90.0248 8.264 90.7821 8.44533 91.4541 8.808C92.1368 9.16 92.6755 9.672 93.0701 10.344C93.4648 11.0053 93.6621 11.8 93.6621 12.728C93.6621 12.824 93.6568 12.936 93.6461 13.064C93.6355 13.1813 93.6248 13.2933 93.6141 13.4H86.6221V11.944H92.3021L91.3421 12.376C91.3421 11.928 91.2515 11.5387 91.0701 11.208C90.8888 10.8773 90.6381 10.6213 90.3181 10.44C89.9981 10.248 89.6248 10.152 89.1981 10.152C88.7715 10.152 88.3928 10.248 88.0621 10.44C87.7421 10.6213 87.4915 10.8827 87.3101 11.224C87.1288 11.5547 87.0381 11.9493 87.0381 12.408V12.792C87.0381 13.2613 87.1395 13.6773 87.3421 14.04C87.5555 14.392 87.8488 14.664 88.2221 14.856C88.6061 15.0373 89.0541 15.128 89.5661 15.128C90.0248 15.128 90.4248 15.0587 90.7661 14.92C91.1181 14.7813 91.4381 14.5733 91.7261 14.296L93.0541 15.736C92.6595 16.184 92.1635 16.5307 91.5661 16.776C90.9688 17.0107 90.2808 17.128 89.5021 17.128Z" fill="#303030"/>
</svg>
